<svg width="329" height="273.5" xmlns="http://www.w3.org/2000/svg" xmlns:xlink="http://www.w3.org/1999/xlink">

 <g>
  <title>background</title>
  <rect fill="#b2b2b2" id="canvas_background" height="275.5" width="331" y="-1" x="-1"/>
 </g>
 <g>
  <title>Layer 1</title>
  <g stroke="#0000ff" id="g4112">
   <path fill="none" fill-rule="evenodd" stroke="#000000" stroke-width="9" stroke-miterlimit="4" id="path2168" d="m4.5,269l320,0l0,-210l-320,0l0,210z"/>
   <path fill="none" fill-rule="evenodd" stroke="#000000" stroke-width="9" stroke-miterlimit="4" id="path3141" d="m5,268.5l319,-207m-319,-2l318,209"/>
  </g>
  <g id="g2407">
   <path stroke="#000000" fill="#000000" id="text2401" d="m144.07887,22.73305l9.1753,13.61575c1.521,2.25703 2.60454,3.62678 3.2506,4.10925c0.646,0.48248 1.41061,0.77279 2.29383,0.87092l0,0.90772l-16.21623,0l0,-0.90772c1.29204,-0.09813 2.12616,-0.29439 2.50235,-0.58879c0.37615,-0.29439 0.56424,-0.65421 0.56426,-1.07944c-0.00002,-0.2944 -0.05727,-0.55608 -0.17173,-0.78506c-0.229,-0.49065 -0.80143,-1.40654 -1.7173,-2.74768l-4.85751,-7.18813l-5.07831,6.20682c-1.52104,1.88086 -2.28156,3.15656 -2.28155,3.82713c-0.00001,0.4743 0.19625,0.91589 0.58879,1.32477c0.39251,0.40888 0.97312,0.70328 1.74183,0.88318c0.34345,0.09814 1.04672,0.1472 2.10983,0.1472l0,0.90772l-12.78163,0l0,-0.90772c1.45562,-0.21262 2.60048,-0.60514 3.4346,-1.17758c1.0958,-0.75234 2.62501,-2.32244 4.58765,-4.71031l6.59934,-8.04678l-8.46384,-12.43817c-1.3902,-2.04437 -2.18343,-3.18106 -2.37969,-3.41006c-0.44159,-0.5397 -0.87501,-0.92404 -1.30024,-1.15305c-0.42524,-0.22894 -1.01403,-0.40067 -1.76637,-0.51519l0,-0.90772l16.51063,0l0,0.90772l-0.83412,0c-0.94862,0.00003 -1.61101,0.15132 -1.98716,0.45386c-0.37619,0.3026 -0.56427,0.68286 -0.56426,1.14078c-0.00001,0.35984 0.05723,0.67059 0.17173,0.93224l1.69277,2.55142l4.12152,6.28042l3.5082,-4.29325c1.79905,-2.20794 2.69859,-3.7535 2.69862,-4.63672c-0.00003,-0.44156 -0.12678,-0.85044 -0.38026,-1.22664c-0.25353,-0.37614 -0.61744,-0.67053 -1.09171,-0.88318c-0.47433,-0.21259 -1.21032,-0.3189 -2.20796,-0.31893l0,-0.90772l12.2419,0l0,0.90772c-0.96499,0.01639 -1.74187,0.13496 -2.33062,0.35573c-0.58882,0.22082 -1.2185,0.63379 -1.88903,1.23891c-0.42527,0.39255 -1.48836,1.61102 -3.18928,3.65539l-6.30495,7.60519z"/>
   <use fill="#000000" stroke="#000000" xlink:href="#text2401" height="273.5" width="329" y="0" x="47" id="use2399"/>
  </g>
 </g>
</svg>